<svg id="visual" viewBox="0 0 900 600" width="900" height="600" xmlns="http://www.w3.org/2000/svg" xmlns:xlink="http://www.w3.org/1999/xlink" version="1.1"><g stroke-width="1" stroke-linejoin="bevel"><path d="M513 279L524 380L568 322Z" fill="#430d99" stroke="#430d99"></path><path d="M524 380L571 365L568 322Z" fill="#4f0ca6" stroke="#4f0ca6"></path><path d="M637 160L474 175L513 279Z" fill="#6706be" stroke="#6706be"></path><path d="M513 279L368 392L524 380Z" fill="#230b75" stroke="#230b75"></path><path d="M361 267L368 392L513 279Z" fill="#380d8d" stroke="#380d8d"></path><path d="M368 392L478 492L524 380Z" fill="#2d0c81" stroke="#2d0c81"></path><path d="M524 380L593 480L571 365Z" fill="#190a69" stroke="#190a69"></path><path d="M478 492L593 480L524 380Z" fill="#2d0c81" stroke="#2d0c81"></path><path d="M571 365L682 266L568 322Z" fill="#190a69" stroke="#190a69"></path><path d="M474 175L361 267L513 279Z" fill="#7400ca" stroke="#7400ca"></path><path d="M720 429L682 266L571 365Z" fill="#380d8d" stroke="#380d8d"></path><path d="M568 322L637 160L513 279Z" fill="#430d99" stroke="#430d99"></path><path d="M317 330L323 374L368 392Z" fill="#040651" stroke="#040651"></path><path d="M368 392L377 533L478 492Z" fill="#0e085d" stroke="#0e085d"></path><path d="M361 267L317 330L368 392Z" fill="#6706be" stroke="#6706be"></path><path d="M474 175L400 164L361 267Z" fill="#190a69" stroke="#190a69"></path><path d="M361 267L224 207L317 330Z" fill="#190a69" stroke="#190a69"></path><path d="M682 266L637 160L568 322Z" fill="#380d8d" stroke="#380d8d"></path><path d="M474 175L478 93L400 164Z" fill="#190a69" stroke="#190a69"></path><path d="M593 480L720 429L571 365Z" fill="#4f0ca6" stroke="#4f0ca6"></path><path d="M637 160L610 120L474 175Z" fill="#0e085d" stroke="#0e085d"></path><path d="M620 600L682 491L593 480Z" fill="#6706be" stroke="#6706be"></path><path d="M593 480L682 491L720 429Z" fill="#5b0ab2" stroke="#5b0ab2"></path><path d="M400 164L335 185L361 267Z" fill="#040651" stroke="#040651"></path><path d="M610 120L478 93L474 175Z" fill="#190a69" stroke="#190a69"></path><path d="M400 164L360 71L335 185Z" fill="#230b75" stroke="#230b75"></path><path d="M275 471L377 533L368 392Z" fill="#4f0ca6" stroke="#4f0ca6"></path><path d="M478 492L494 600L593 480Z" fill="#190a69" stroke="#190a69"></path><path d="M682 266L731 191L637 160Z" fill="#2d0c81" stroke="#2d0c81"></path><path d="M637 160L738 62L610 120Z" fill="#230b75" stroke="#230b75"></path><path d="M839 328L731 191L682 266Z" fill="#7400ca" stroke="#7400ca"></path><path d="M794 474L764 406L720 429Z" fill="#5b0ab2" stroke="#5b0ab2"></path><path d="M720 429L764 406L682 266Z" fill="#230b75" stroke="#230b75"></path><path d="M407 600L494 600L478 492Z" fill="#0e085d" stroke="#0e085d"></path><path d="M205 372L275 471L323 374Z" fill="#5b0ab2" stroke="#5b0ab2"></path><path d="M323 374L275 471L368 392Z" fill="#7400ca" stroke="#7400ca"></path><path d="M205 372L323 374L317 330Z" fill="#2d0c81" stroke="#2d0c81"></path><path d="M494 600L620 600L593 480Z" fill="#430d99" stroke="#430d99"></path><path d="M682 491L794 474L720 429Z" fill="#2d0c81" stroke="#2d0c81"></path><path d="M314 600L407 600L377 533Z" fill="#2d0c81" stroke="#2d0c81"></path><path d="M377 533L407 600L478 492Z" fill="#2d0c81" stroke="#2d0c81"></path><path d="M478 93L360 71L400 164Z" fill="#0e085d" stroke="#0e085d"></path><path d="M360 71L281 137L335 185Z" fill="#6706be" stroke="#6706be"></path><path d="M335 185L224 207L361 267Z" fill="#6706be" stroke="#6706be"></path><path d="M839 328L783 167L731 191Z" fill="#380d8d" stroke="#380d8d"></path><path d="M731 191L738 62L637 160Z" fill="#230b75" stroke="#230b75"></path><path d="M713 600L794 474L682 491Z" fill="#380d8d" stroke="#380d8d"></path><path d="M764 406L839 328L682 266Z" fill="#190a69" stroke="#190a69"></path><path d="M196 276L205 372L317 330Z" fill="#0e085d" stroke="#0e085d"></path><path d="M281 137L224 207L335 185Z" fill="#7400ca" stroke="#7400ca"></path><path d="M900 434L839 328L764 406Z" fill="#7400ca" stroke="#7400ca"></path><path d="M224 207L196 276L317 330Z" fill="#6706be" stroke="#6706be"></path><path d="M581 0L478 93L610 120Z" fill="#6706be" stroke="#6706be"></path><path d="M581 0L491 0L478 93Z" fill="#6706be" stroke="#6706be"></path><path d="M478 93L378 0L360 71Z" fill="#4f0ca6" stroke="#4f0ca6"></path><path d="M620 600L713 600L682 491Z" fill="#380d8d" stroke="#380d8d"></path><path d="M721 0L581 0L610 120Z" fill="#380d8d" stroke="#380d8d"></path><path d="M275 471L314 600L377 533Z" fill="#5b0ab2" stroke="#5b0ab2"></path><path d="M189 600L314 600L275 471Z" fill="#430d99" stroke="#430d99"></path><path d="M783 167L738 62L731 191Z" fill="#430d99" stroke="#430d99"></path><path d="M97 393L192 475L205 372Z" fill="#0e085d" stroke="#0e085d"></path><path d="M205 372L192 475L275 471Z" fill="#6706be" stroke="#6706be"></path><path d="M360 71L219 64L281 137Z" fill="#0e085d" stroke="#0e085d"></path><path d="M281 137L219 64L224 207Z" fill="#4f0ca6" stroke="#4f0ca6"></path><path d="M491 0L378 0L478 93Z" fill="#380d8d" stroke="#380d8d"></path><path d="M900 168L803 83L783 167Z" fill="#040651" stroke="#040651"></path><path d="M783 167L803 83L738 62Z" fill="#190a69" stroke="#190a69"></path><path d="M738 62L721 0L610 120Z" fill="#6706be" stroke="#6706be"></path><path d="M93 200L137 309L196 276Z" fill="#6706be" stroke="#6706be"></path><path d="M196 276L137 309L205 372Z" fill="#6706be" stroke="#6706be"></path><path d="M93 200L196 276L224 207Z" fill="#380d8d" stroke="#380d8d"></path><path d="M900 434L900 300L839 328Z" fill="#7400ca" stroke="#7400ca"></path><path d="M839 328L900 300L783 167Z" fill="#190a69" stroke="#190a69"></path><path d="M830 0L721 0L738 62Z" fill="#040651" stroke="#040651"></path><path d="M713 600L797 600L794 474Z" fill="#0e085d" stroke="#0e085d"></path><path d="M794 474L900 434L764 406Z" fill="#190a69" stroke="#190a69"></path><path d="M900 517L900 434L794 474Z" fill="#5b0ab2" stroke="#5b0ab2"></path><path d="M261 0L219 64L360 71Z" fill="#040651" stroke="#040651"></path><path d="M900 300L900 168L783 167Z" fill="#4f0ca6" stroke="#4f0ca6"></path><path d="M803 83L830 0L738 62Z" fill="#2d0c81" stroke="#2d0c81"></path><path d="M378 0L261 0L360 71Z" fill="#5b0ab2" stroke="#5b0ab2"></path><path d="M137 309L97 393L205 372Z" fill="#6706be" stroke="#6706be"></path><path d="M192 475L189 600L275 471Z" fill="#7400ca" stroke="#7400ca"></path><path d="M0 297L97 393L137 309Z" fill="#040651" stroke="#040651"></path><path d="M129 600L189 600L192 475Z" fill="#6706be" stroke="#6706be"></path><path d="M797 600L900 517L794 474Z" fill="#5b0ab2" stroke="#5b0ab2"></path><path d="M97 393L109 466L192 475Z" fill="#5b0ab2" stroke="#5b0ab2"></path><path d="M64 128L93 200L219 64Z" fill="#230b75" stroke="#230b75"></path><path d="M219 64L93 200L224 207Z" fill="#190a69" stroke="#190a69"></path><path d="M900 73L830 0L803 83Z" fill="#380d8d" stroke="#380d8d"></path><path d="M261 0L205 0L219 64Z" fill="#2d0c81" stroke="#2d0c81"></path><path d="M900 168L900 73L803 83Z" fill="#5b0ab2" stroke="#5b0ab2"></path><path d="M797 600L900 600L900 517Z" fill="#430d99" stroke="#430d99"></path><path d="M0 600L129 600L109 466Z" fill="#230b75" stroke="#230b75"></path><path d="M109 466L129 600L192 475Z" fill="#380d8d" stroke="#380d8d"></path><path d="M136 0L64 128L219 64Z" fill="#5b0ab2" stroke="#5b0ab2"></path><path d="M93 200L0 297L137 309Z" fill="#230b75" stroke="#230b75"></path><path d="M205 0L136 0L219 64Z" fill="#430d99" stroke="#430d99"></path><path d="M900 73L900 0L830 0Z" fill="#380d8d" stroke="#380d8d"></path><path d="M0 173L0 297L93 200Z" fill="#4f0ca6" stroke="#4f0ca6"></path><path d="M97 393L0 438L109 466Z" fill="#4f0ca6" stroke="#4f0ca6"></path><path d="M0 297L0 438L97 393Z" fill="#7400ca" stroke="#7400ca"></path><path d="M0 438L0 465L109 466Z" fill="#430d99" stroke="#430d99"></path><path d="M64 128L0 173L93 200Z" fill="#190a69" stroke="#190a69"></path><path d="M0 125L0 173L64 128Z" fill="#0e085d" stroke="#0e085d"></path><path d="M0 0L0 125L64 128Z" fill="#2d0c81" stroke="#2d0c81"></path><path d="M0 465L0 600L109 466Z" fill="#6706be" stroke="#6706be"></path><path d="M136 0L0 0L64 128Z" fill="#0e085d" stroke="#0e085d"></path></g></svg>